<svg width="214" height="80" viewBox="0 0 214 80" fill="none" xmlns="http://www.w3.org/2000/svg">
<g clip-path="url(#clip0_31_2)">
<circle cx="73" cy="31" r="4" fill="#ADA2FF"/>
<circle cx="73" cy="55" r="4" fill="#429CFF"/>
<path d="M7.375 41.8125V62.8125H2.75V22.9375L5.75 20.1875C6.70833 20.0625 7.66667 19.9583 8.625 19.875C9.625 19.7917 10.6042 19.75 11.5625 19.75C13.8125 19.75 16 19.9792 18.125 20.4375C20.25 20.8542 22.1458 21.5417 23.8125 22.5C25.4792 23.4167 26.8125 24.6042 27.8125 26.0625C28.8542 27.5208 29.375 29.2917 29.375 31.375C29.375 33.25 29.0417 34.8333 28.375 36.125C27.7083 37.4167 26.8125 38.5 25.6875 39.375C24.5625 40.2083 23.2917 40.8542 21.875 41.3125C20.4583 41.7292 19 42.0208 17.5 42.1875L27.375 57.9375L24.125 60.1875L13.125 42.4375C12.125 42.4375 11.1458 42.4167 10.1875 42.375C9.22917 42.3333 8.29167 42.1458 7.375 41.8125ZM7.625 38.0625C9.25 38.5208 11.125 38.75 13.25 38.75C14.625 38.75 16.0208 38.6458 17.4375 38.4375C18.8542 38.1875 20.125 37.7917 21.25 37.25C22.4167 36.6667 23.3542 35.8958 24.0625 34.9375C24.7708 33.9792 25.125 32.7917 25.125 31.375C25.125 30.1667 24.8125 29.0833 24.1875 28.125C23.5625 27.1667 22.6875 26.375 21.5625 25.75C20.4792 25.0833 19.1875 24.5833 17.6875 24.25C16.2292 23.875 14.6458 23.6875 12.9375 23.6875C12.1458 23.6875 11.3542 23.7292 10.5625 23.8125C9.77083 23.8958 8.95833 24.0208 8.125 24.1875C7.91667 26.3958 7.77083 28.7292 7.6875 31.1875C7.64583 33.6458 7.625 35.9375 7.625 38.0625ZM36.95 46.1875C36.95 43.8958 37.2833 41.9792 37.95 40.4375C38.6167 38.8542 39.45 37.6042 40.45 36.6875C41.4917 35.7292 42.6375 35.0625 43.8875 34.6875C45.1375 34.2708 46.3458 34.0625 47.5125 34.0625C49.1792 34.0625 50.6792 34.3125 52.0125 34.8125C53.3458 35.2708 54.4708 36.0625 55.3875 37.1875C56.3458 38.2708 57.075 39.7292 57.575 41.5625C58.075 43.3958 58.325 45.6458 58.325 48.3125L40.95 50C41.075 51.1667 41.3875 52.1667 41.8875 53C42.4292 53.7917 43.0958 54.4375 43.8875 54.9375C44.6792 55.4375 45.5333 55.7917 46.45 56C47.3667 56.2083 48.3042 56.3125 49.2625 56.3125C50.8458 56.3125 52.3667 56.0833 53.825 55.625C55.2833 55.1667 56.3667 54.6042 57.075 53.9375L58.2 56.9375C57.9083 57.3542 57.4708 57.7708 56.8875 58.1875C56.3042 58.6042 55.6167 58.9583 54.825 59.25C54.0333 59.5833 53.1375 59.8333 52.1375 60C51.1792 60.2083 50.1792 60.3125 49.1375 60.3125C47.6792 60.3125 46.2208 60.0833 44.7625 59.625C43.3042 59.1667 41.9917 58.3958 40.825 57.3125C39.6583 56.2292 38.7208 54.7917 38.0125 53C37.3042 51.1667 36.95 48.8958 36.95 46.1875ZM40.575 46.3125L54.325 44.8125C54.325 42.7708 53.7833 41.1458 52.7 39.9375C51.6167 38.6875 49.8667 38.0625 47.45 38.0625C46.2833 38.1042 45.2625 38.3542 44.3875 38.8125C43.5542 39.2708 42.8458 39.8542 42.2625 40.5625C41.6792 41.2292 41.2417 42 40.95 42.875C40.6583 43.75 40.5125 44.6458 40.5125 45.5625C40.5125 45.8958 40.5333 46.1458 40.575 46.3125ZM107.1 44.1875V45.5C107.1 47.875 106.746 49.8542 106.037 51.4375C105.329 53.0208 104.433 54.2917 103.35 55.25C102.308 56.1667 101.142 56.8125 99.85 57.1875C98.5583 57.5625 97.3292 57.75 96.1625 57.75C94.8292 57.75 93.5792 57.5833 92.4125 57.25C91.2875 56.9167 90.4333 56.5208 89.85 56.0625L90.35 70.0625L86.475 70.4375V36.4375L86.85 33.5625C89.9333 32.8542 92.6 32.5 94.85 32.5C98.725 32.5 101.683 33.4792 103.725 35.4375C105.808 37.3542 106.933 40.2708 107.1 44.1875ZM89.225 37.9375L89.475 50.3125C89.5167 50.5208 89.725 50.7708 90.1 51.0625C90.5167 51.3542 91.0375 51.6458 91.6625 51.9375C92.3292 52.1875 93.0583 52.4167 93.85 52.625C94.6417 52.7917 95.4542 52.875 96.2875 52.875C97.0792 52.875 97.8708 52.75 98.6625 52.5C99.4958 52.2083 100.225 51.7292 100.85 51.0625C101.517 50.3958 102.058 49.5 102.475 48.375C102.892 47.25 103.1 45.8542 103.1 44.1875C103.1 42.8958 102.85 41.7708 102.35 40.8125C101.892 39.8125 101.246 39 100.412 38.375C99.6208 37.7083 98.7042 37.2292 97.6625 36.9375C96.6625 36.6042 95.6208 36.4375 94.5375 36.4375C93.5792 36.4375 92.6417 36.5625 91.725 36.8125C90.8083 37.0625 89.975 37.4375 89.225 37.9375ZM136.175 40.5625L140.175 57.5625L136.425 58.9375L134.175 48.3125C133.883 49.4792 133.425 50.6875 132.8 51.9375C132.217 53.1875 131.467 54.3333 130.55 55.375C129.675 56.375 128.613 57.2083 127.363 57.875C126.154 58.5 124.779 58.8125 123.238 58.8125C120.488 58.8125 118.383 57.9375 116.925 56.1875C115.508 54.3958 114.8 51.9375 114.8 48.8125C114.8 47.0208 115.071 45.1667 115.613 43.25C116.154 41.2917 116.967 39.5208 118.05 37.9375C119.133 36.3542 120.488 35.0417 122.113 34C123.779 32.9583 125.717 32.4375 127.925 32.4375C129.217 32.4375 130.342 32.7292 131.3 33.3125C132.3 33.8542 133.133 34.5417 133.8 35.375C134.467 36.2083 134.988 37.1042 135.363 38.0625C135.738 38.9792 136.008 39.8125 136.175 40.5625ZM128.55 36.9375C128.258 36.8542 127.967 36.7917 127.675 36.75C127.425 36.7083 127.154 36.6875 126.863 36.6875C125.571 36.6875 124.404 37.0833 123.363 37.875C122.363 38.625 121.508 39.5833 120.8 40.75C120.133 41.9167 119.613 43.1875 119.238 44.5625C118.904 45.9375 118.738 47.2083 118.738 48.375C118.738 50.2083 119.133 51.6875 119.925 52.8125C120.717 53.9375 121.967 54.5 123.675 54.5C124.842 54.5 125.925 54.125 126.925 53.375C127.925 52.5833 128.779 51.6042 129.488 50.4375C130.196 49.2708 130.738 48 131.113 46.625C131.529 45.2083 131.738 43.8958 131.738 42.6875C131.738 41.3542 131.467 40.1875 130.925 39.1875C130.425 38.1458 129.633 37.3958 128.55 36.9375ZM149.625 59.1875V36.3125H154V59.4375L149.625 59.1875ZM155.375 31.1875L151 32.4375L147 22.9375L151.375 21.8125L155.375 31.1875ZM179.7 38.6875H167.575V58.6875L164.45 59.0625V32.1875L167.45 31.5625V34.6875L181.95 33.8125L183.825 37.5625L185.7 57.9375L181.7 59.0625L179.7 38.6875ZM197.4 57.6875V38.75H191.025L191.4 34.1875H198.275V21.4375H202.525V34.4375H212.775V38.9375H202.087V55.1875L211.525 53.4375L212.15 57.6875L199.65 60.3125L197.4 57.6875Z" fill="black"/>
</g>
<defs>
<clipPath id="clip0_31_2">
<rect width="214" height="80" fill="white"/>
</clipPath>
</defs>
</svg>
